<svg width="33" height="22" viewBox="0 0 33 22" fill="none" xmlns="http://www.w3.org/2000/svg">
<path d="M0.940875 21.5384C0.723209 21.5384 0.540542 21.4636 0.392875 21.3139C0.245542 21.1646 0.171875 20.9794 0.171875 20.7584C0.171875 20.5374 0.245542 20.3558 0.392875 20.2134C0.540542 20.0711 0.723209 19.9999 0.940875 19.9999H31.4029C31.6205 19.9999 31.8032 20.0748 31.9509 20.2244C32.0982 20.3738 32.1719 20.5589 32.1719 20.7799C32.1719 21.0009 32.0982 21.1826 31.9509 21.3249C31.8032 21.4673 31.6205 21.5384 31.4029 21.5384H0.940875ZM0.940875 11.7689C0.723209 11.7689 0.540542 11.6943 0.392875 11.5449C0.245542 11.3953 0.171875 11.2099 0.171875 10.9889C0.171875 10.7679 0.245542 10.5863 0.392875 10.4439C0.540542 10.3019 0.723209 10.2309 0.940875 10.2309H31.4029C31.6205 10.2309 31.8032 10.3056 31.9509 10.4549C32.0982 10.6046 32.1719 10.7899 32.1719 11.0109C32.1719 11.2319 32.0982 11.4136 31.9509 11.5559C31.8032 11.6979 31.6205 11.7689 31.4029 11.7689H0.940875ZM0.940875 1.99993C0.723209 1.99993 0.540542 1.92509 0.392875 1.77543C0.245542 1.62609 0.171875 1.44093 0.171875 1.21993C0.171875 0.998928 0.245542 0.81726 0.392875 0.674927C0.540542 0.532593 0.723209 0.461426 0.940875 0.461426H31.4029C31.6205 0.461426 31.8032 0.536259 31.9509 0.685925C32.0982 0.835259 32.1719 1.02043 32.1719 1.24143C32.1719 1.46243 32.0982 1.64409 31.9509 1.78643C31.8032 1.92876 31.6205 1.99993 31.4029 1.99993H0.940875Z" fill="white"/>
</svg>
